<svg xmlns="http://www.w3.org/2000/svg" version="1.1" xmlns:xlink="http://www.w3.org/1999/xlink" xmlns:svgjs="http://svgjs.dev/svgjs" width="1500" height="935" viewBox="0 0 1500 935"><g transform="matrix(1,0,0,1,-0.9090909090909918,0.3785425101214628)"><svg viewBox="0 0 396 247" data-background-color="#000000" preserveAspectRatio="xMidYMid meet" height="935" width="1500" xmlns="http://www.w3.org/2000/svg" xmlns:xlink="http://www.w3.org/1999/xlink"><g id="tight-bounds" transform="matrix(1,0,0,1,0.2400000000000091,-0.09999999999999432)"><svg viewBox="0 0 395.52 247.2" height="247.2" width="395.52"><g><svg></svg></g><g><svg viewBox="0 0 395.52 247.2" height="247.2" width="395.52"><g transform="matrix(1,0,0,1,75.54432,50.9106242394015)"><svg viewBox="0 0 244.43135999999998 145.378751521197" height="145.378751521197" width="244.43135999999998"><g><svg viewBox="0 0 244.43135999999998 145.378751521197" height="145.378751521197" width="244.43135999999998"><g><svg viewBox="0 0 244.43135999999998 145.378751521197" height="145.378751521197" width="244.43135999999998"><g id="textblocktransform"><svg viewBox="0 0 244.43135999999998 145.378751521197" height="145.378751521197" width="244.43135999999998" id="textblock"><g><svg viewBox="0 0 244.43135999999998 145.378751521197" height="145.378751521197" width="244.43135999999998"><g transform="matrix(1,0,0,1,0,0)"><svg width="244.43135999999998" viewBox="1.5 -37.25 80.2 47.7" height="145.378751521197" data-palette-color="#ff4136"><path d="M14.25-15.15L14.25-15.15 14.25-13.6 33.75-13.6 33.75-15.15Q33.75-16.5 33.52-17.65 33.3-18.8 32.95-19.8L32.95-19.8 29.5-27.95Q28.95-29.25 28.35-30.13 27.75-31 26.35-31L26.35-31 21.45-31Q19.95-31 19.35-30.13 18.75-29.25 18.25-28L18.25-28 15.05-19.8Q14.7-18.8 14.48-17.65 14.25-16.5 14.25-15.15ZM19.9-17.9L22.25-25.5Q22.45-25.95 22.68-26.15 22.9-26.35 23.2-26.35L23.2-26.35 24.45-26.35Q24.75-26.35 24.98-26.15 25.2-25.95 25.4-25.5L25.4-25.5 27.75-17.9 19.9-17.9ZM34.25-4.5L33.75-4.5 33.75-13.1 14.25-13.1 14.25-4.5 13.75-4.5 13.75-15.15Q13.75-16.55 13.98-17.73 14.2-18.9 14.6-20L14.6-20 17.8-28.2Q18.35-29.6 19.05-30.55 19.75-31.5 21.45-31.5L21.45-31.5 26.35-31.5Q28-31.5 28.68-30.55 29.35-29.6 29.95-28.15L29.95-28.15 33.4-20Q33.8-18.9 34.02-17.73 34.25-16.55 34.25-15.15L34.25-15.15 34.25-4.5ZM19.4-1.8L19.4-1.8 19.4-8.8 28.25-8.8 28.25-1.8Q28.25-0.85 28.73-0.43 29.2 0 30.2 0L30.2 0 37.75 0Q38.7 0 39.13-0.43 39.55-0.85 39.55-1.8L39.55-1.8 39.55-15Q39.55-16.5 39.08-18.45 38.6-20.4 37.6-23L37.6-23 33.25-34.35Q32.95-35.2 32.33-35.6 31.7-36 30.75-36L30.75-36 17.3-36Q16.3-36 15.68-35.6 15.05-35.2 14.75-34.35L14.75-34.35 10.4-23Q9.4-20.4 8.93-18.45 8.45-16.5 8.45-15L8.45-15 8.45-1.8Q8.45-0.85 8.88-0.43 9.3 0 10.25 0L10.25 0 17.6 0Q18.55 0 18.98-0.43 19.4-0.85 19.4-1.8ZM19.2 0.05L12.7 5.45Q12.5 5.65 12.08 5.8 11.65 5.95 11.15 5.95L11.15 5.95 3.8 5.95Q2.6 5.95 2.05 5.4 1.5 4.85 1.5 3.65L1.5 3.65 1.5-9.55Q1.5-11.1 1.98-13.08 2.45-15.05 3.5-17.75L3.5-17.75 7.8-29.05Q7.95-29.5 8.18-29.83 8.4-30.15 8.65-30.4L8.65-30.4 8.7-30.45 15.1-35.8Q15.5-36.15 16.05-36.33 16.6-36.5 17.3-36.5L17.3-36.5 30.75-36.5Q31.9-36.5 32.63-36.02 33.35-35.55 33.7-34.55L33.7-34.55 38.05-23.2Q39.1-20.5 39.58-18.53 40.05-16.55 40.05-15L40.05-15 40.05-1.8Q40.05-1.15 39.88-0.7 39.7-0.25 39.35 0.05L39.35 0.05 32.85 5.45Q32.65 5.65 32.23 5.8 31.8 5.95 31.3 5.95L31.3 5.95 23.75 5.95Q22.5 5.95 21.9 5.38 21.3 4.8 21.3 3.65L21.3 3.65 21.3-2.85 19.9-2.85 19.9-1.8Q19.9-1.15 19.73-0.7 19.55-0.25 19.2 0.05L19.2 0.05ZM63.05 10.45L63.05 10.45 55.35 10.45Q54.15 10.45 53.6 9.9 53.05 9.35 53.05 8.15L53.05 8.15 53.05 5.85Q50.15 5.35 48.22 4.17 46.3 3 45.2 1.4 44.1-0.2 43.65-2.1 43.2-4 43.2-5.95L43.2-5.95 43.2-21.05Q43.2-23.35 43.85-25.33 44.5-27.3 46.2-28.7L46.2-28.7 52.7-34.1Q54.45-35.6 57.57-36.43 60.7-37.25 65.7-37.25L65.7-37.25Q70.6-37.25 73.72-36.45 76.85-35.65 78.62-34.23 80.4-32.8 81.05-30.83 81.7-28.85 81.7-26.5L81.7-26.5 81.7-9.9Q81.7-7.6 81.05-5.65 80.4-3.7 78.7-2.3L78.7-2.3 72.25 3.1Q72.1 3.2 71.97 3.33 71.85 3.45 71.7 3.5L71.7 3.5Q71.65 3.85 71.47 4.1 71.3 4.35 71.1 4.55L71.1 4.55 64.6 9.95Q64.4 10.15 63.97 10.3 63.55 10.45 63.05 10.45ZM61.8 4.5L69.5 4.5Q70.45 4.5 70.87 4.08 71.3 3.65 71.3 2.7L71.3 2.7 71.3-0.05Q74.25-0.45 76.17-1.35 78.1-2.25 79.2-3.5 80.3-4.75 80.75-6.38 81.2-8 81.2-9.9L81.2-9.9 81.2-26.5Q81.2-28.8 80.52-30.68 79.85-32.55 78.12-33.9 76.4-35.25 73.37-36 70.35-36.75 65.7-36.75L65.7-36.75Q61.05-36.75 58-36 54.95-35.25 53.22-33.9 51.5-32.55 50.82-30.68 50.15-28.8 50.15-26.5L50.15-26.5 50.15-9.9Q50.15-6.15 52.17-3.53 54.2-0.9 60-0.05L60-0.05 60 2.7Q60 3.65 60.42 4.08 60.85 4.5 61.8 4.5L61.8 4.5ZM65.85 0L65.35 0 65.35-3.85Q59.65-3.9 57.6-5.75 55.55-7.6 55.55-10.6L55.55-10.6 55.55-25.35Q55.55-28.35 57.65-30.23 59.75-32.1 65.6-32.1L65.6-32.1Q71.45-32.1 73.6-30.23 75.75-28.35 75.75-25.35L75.75-25.35 75.75-10.6Q75.75-7.6 73.65-5.75 71.55-3.9 65.85-3.85L65.85-3.85 65.85 0ZM56.05-25.35L56.05-10.6Q56.05-7.8 58.05-6.08 60.05-4.35 65.6-4.35L65.6-4.35Q71.15-4.35 73.2-6.08 75.25-7.8 75.25-10.6L75.25-10.6 75.25-25.35Q75.25-28.15 73.2-29.88 71.15-31.6 65.6-31.6L65.6-31.6Q60.05-31.6 58.05-29.88 56.05-28.15 56.05-25.35L56.05-25.35ZM61.5-11L61.5-11 61.5-24.65Q61.5-25.6 62.25-26.28 63-26.95 65.7-26.95L65.7-26.95Q68.4-26.95 69.15-26.28 69.9-25.6 69.9-24.65L69.9-24.65 69.9-11Q69.9-10 69.15-9.33 68.4-8.65 65.7-8.65L65.7-8.65Q63-8.65 62.25-9.33 61.5-10 61.5-11ZM62-20.65L62-11Q62-10.5 62.2-10.13 62.4-9.75 62.95-9.5L62.95-9.5 62.95-19.2Q62.95-19.7 62.75-20.08 62.55-20.45 62-20.65L62-20.65Z" opacity="1" transform="matrix(1,0,0,1,0,0)" fill="#ff4136" class="wordmark-text-0" data-fill-palette-color="primary" id="text-0"></path></svg></g></svg></g></svg></g></svg></g></svg></g></svg></g><path d="M254.592 44.911L254.592 1.587 10.566 1.587 10.566 245.613 254.592 245.613 254.592 202.289 241.481 202.289 241.481 232.502 23.676 232.502 23.676 14.698 241.481 14.698 241.481 44.911Z" fill="#ff4136" stroke="transparent" data-fill-palette-color="tertiary"></path></svg></g><defs></defs></svg><rect width="395.52" height="247.2" fill="none" stroke="none" visibility="hidden"></rect></g></svg></g></svg>